# xmcd
#
# Track frame offsets:
#	150
#	25300
#	39268
#	54440
#	73859
#	88217
#	102603
#	117869
#	133264
#	152987
#	167532
#	181444
#	196739
#	214994
#	230405
#	248762
#	261833
#	274330
#	307710
#	322746
#	336485
#
# Disc length: 4696 seconds
#
# Revision: 0
# Processed by: cddbd v1.5.2PL0 Copyright (c) Steve Scherf et al.
# Submitted via: EasyCDDAExtractor 2010.4.0.0
#
DISCID=32125615
DTITLE=Various Artist - Country Hits, Vol. 35
DYEAR=2010
DGENRE=Country
TTITLE0=Toby Keith - I Love This Bar
TTITLE1=Blake Shelton - Georgia In A Jug
TTITLE2=Wenche - Friday Night Cowgirl
TTITLE3=Dixie Chicks - Everybody Knows
TTITLE4=Garth Brooks - Wild Horses
TTITLE5=Toby Keith - Grain of Salt
TTITLE6=Alison Krauss and The Cox Family - Far Side Bank Of Jordan
TTITLE7=Blake Shelton - Some Beach
TTITLE8=Garth Brooks - Rodeo Or Mexico
TTITLE9=Toby Keith - You Ain't Leavin' (Thank God Are Ya)
TTITLE10=Alison Krauss and The Cox Family - Loves Me Like A Rock
TTITLE11=Blake Shelton - The Last Country Song
TTITLE12=Toby Keith - Im So Happy I Cant Stop Crying (With Sting)
TTITLE13=Dixie Chicks - Am I The Only One (Who's Ever Felt This Way-)
TTITLE14=Sammy Kershaw - Louisiana Hot Sauce
TTITLE15=Terri Clark - I Wanna Do It All
TTITLE16=Toby Keith - I'm Just Talkin' About Tonight
TTITLE17=Sean Patrick Mcgraw - I'm Just A Man
TTITLE18=Slim Dusty - Dead On Time
TTITLE19=Blake Shelton - Good Old Boy, Bad Old Boyfriend
TTITLE20=Toby Keith - Pump Jack
EXTD=
EXTT0=
EXTT1=
EXTT2=
EXTT3=
EXTT4=
EXTT5=
EXTT6=
EXTT7=
EXTT8=
EXTT9=
EXTT10=
EXTT11=
EXTT12=
EXTT13=
EXTT14=
EXTT15=
EXTT16=
EXTT17=
EXTT18=
EXTT19=
EXTT20=
PLAYORDER=
